<?xml version="1.0" encoding="UTF-8" standalone="no"?>
<!DOCTYPE svg PUBLIC "-//W3C//DTD SVG 1.1//EN"
 "http://www.w3.org/Graphics/SVG/1.1/DTD/svg11.dtd">
<!-- Generated by graphviz version 2.50.0 (20211204.2007)
 -->
<!-- Pages: 1 -->
<svg width="411pt" height="355pt"
 viewBox="0.00 0.00 410.50 355.00" xmlns="http://www.w3.org/2000/svg" xmlns:xlink="http://www.w3.org/1999/xlink">
<g id="graph0" class="graph" transform="scale(1 1) rotate(0) translate(4 351)">
<polygon fill="white" stroke="transparent" points="-4,4 -4,-351 406.5,-351 406.5,4 -4,4"/>
<!-- Cソース
テキスト -->
<g id="node1" class="node">
<title>Cソース
テキスト</title>
<polygon fill="none" stroke="black" points="314.5,-347 241.5,-347 241.5,-309 314.5,-309 314.5,-347"/>
<text text-anchor="middle" x="278" y="-331.8" font-family="Times,serif" font-size="14.00">Cソース</text>
<text text-anchor="middle" x="278" y="-316.8" font-family="Times,serif" font-size="14.00">テキスト</text>
</g>
<!-- 　　　　*
コメントと
コメント以外 -->
<g id="node2" class="node">
<title>　　　　*
コメントと
コメント以外</title>
<polygon fill="none" stroke="black" points="328.5,-273 227.5,-273 227.5,-220 328.5,-220 328.5,-273"/>
<text text-anchor="middle" x="278" y="-257.8" font-family="Times,serif" font-size="14.00">　　　　*</text>
<text text-anchor="middle" x="278" y="-242.8" font-family="Times,serif" font-size="14.00">コメントと</text>
<text text-anchor="middle" x="278" y="-227.8" font-family="Times,serif" font-size="14.00">コメント以外</text>
</g>
<!-- Cソース
テキスト&#45;&#45;　　　　*
コメントと
コメント以外 -->
<g id="edge1" class="edge">
<title>Cソース
テキスト&#45;&#45;　　　　*
コメントと
コメント以外</title>
<path fill="none" stroke="black" d="M278,-308.96C278,-298.33 278,-284.72 278,-273"/>
</g>
<!-- コメント -->
<g id="node3" class="node">
<title>コメント</title>
<polygon fill="none" stroke="black" points="262.5,-184 189.5,-184 189.5,-148 262.5,-148 262.5,-184"/>
<text text-anchor="middle" x="226" y="-162.3" font-family="Times,serif" font-size="14.00">コメント</text>
</g>
<!-- 　　　　*
コメントと
コメント以外&#45;&#45;コメント -->
<g id="edge2" class="edge">
<title>　　　　*
コメントと
コメント以外&#45;&#45;コメント</title>
<path fill="none" stroke="black" d="M260.97,-219.8C253.27,-208.17 244.37,-194.74 237.48,-184.33"/>
</g>
<!-- コメント以外 -->
<g id="node4" class="node">
<title>コメント以外</title>
<polygon fill="none" stroke="black" points="402.5,-184 301.5,-184 301.5,-148 402.5,-148 402.5,-184"/>
<text text-anchor="middle" x="352" y="-162.3" font-family="Times,serif" font-size="14.00">コメント以外</text>
</g>
<!-- 　　　　*
コメントと
コメント以外&#45;&#45;コメント以外 -->
<g id="edge3" class="edge">
<title>　　　　*
コメントと
コメント以外&#45;&#45;コメント以外</title>
<path fill="none" stroke="black" d="M302.23,-219.8C313.19,-208.17 325.85,-194.74 335.66,-184.33"/>
</g>
<!-- コメント
開始文字列 -->
<g id="node5" class="node">
<title>コメント
開始文字列</title>
<polygon fill="none" stroke="black" points="129,-112 41,-112 41,-74 129,-74 129,-112"/>
<text text-anchor="middle" x="85" y="-96.8" font-family="Times,serif" font-size="14.00">コメント</text>
<text text-anchor="middle" x="85" y="-81.8" font-family="Times,serif" font-size="14.00">開始文字列</text>
</g>
<!-- コメント&#45;&#45;コメント
開始文字列 -->
<g id="edge4" class="edge">
<title>コメント&#45;&#45;コメント
開始文字列</title>
<path fill="none" stroke="black" d="M192.23,-147.99C170.72,-137.16 142.88,-123.15 120.96,-112.11"/>
</g>
<!-- コメント
文字列 -->
<g id="node6" class="node">
<title>コメント
文字列</title>
<polygon fill="none" stroke="black" points="220.5,-112 147.5,-112 147.5,-74 220.5,-74 220.5,-112"/>
<text text-anchor="middle" x="184" y="-96.8" font-family="Times,serif" font-size="14.00">コメント</text>
<text text-anchor="middle" x="184" y="-81.8" font-family="Times,serif" font-size="14.00">文字列</text>
</g>
<!-- コメント&#45;&#45;コメント
文字列 -->
<g id="edge5" class="edge">
<title>コメント&#45;&#45;コメント
文字列</title>
<path fill="none" stroke="black" d="M215.83,-147.81C209.42,-136.98 201.16,-123.01 194.66,-112.02"/>
</g>
<!-- コメント
終了文字列 -->
<g id="node7" class="node">
<title>コメント
終了文字列</title>
<polygon fill="none" stroke="black" points="327,-112 239,-112 239,-74 327,-74 327,-112"/>
<text text-anchor="middle" x="283" y="-96.8" font-family="Times,serif" font-size="14.00">コメント</text>
<text text-anchor="middle" x="283" y="-81.8" font-family="Times,serif" font-size="14.00">終了文字列</text>
</g>
<!-- コメント&#45;&#45;コメント
終了文字列 -->
<g id="edge6" class="edge">
<title>コメント&#45;&#45;コメント
終了文字列</title>
<path fill="none" stroke="black" d="M239.8,-147.81C248.5,-136.98 259.71,-123.01 268.53,-112.02"/>
</g>
<!-- 　　 *
文字 -->
<g id="node13" class="node">
<title>　　 *
文字</title>
<polygon fill="none" stroke="black" points="401,-112 345,-112 345,-74 401,-74 401,-112"/>
<text text-anchor="middle" x="373" y="-96.8" font-family="Times,serif" font-size="14.00">　　 *</text>
<text text-anchor="middle" x="373" y="-81.8" font-family="Times,serif" font-size="14.00">文字</text>
</g>
<!-- コメント以外&#45;&#45;　　 *
文字 -->
<g id="edge12" class="edge">
<title>コメント以外&#45;&#45;　　 *
文字</title>
<path fill="none" stroke="black" d="M357.08,-147.81C360.29,-136.98 364.42,-123.01 367.67,-112.02"/>
</g>
<!-- / -->
<g id="node8" class="node">
<title>/</title>
<polygon fill="none" stroke="black" points="54,-37 0,-37 0,-1 54,-1 54,-37"/>
<text text-anchor="middle" x="27" y="-15.3" font-family="Times,serif" font-size="14.00">/</text>
</g>
<!-- コメント
開始文字列&#45;&#45;/ -->
<g id="edge7" class="edge">
<title>コメント
開始文字列&#45;&#45;/</title>
<path fill="none" stroke="black" d="M70.36,-73.83C61.37,-62.67 49.91,-48.44 41.03,-37.42"/>
</g>
<!-- * -->
<g id="node9" class="node">
<title>*</title>
<polygon fill="none" stroke="black" points="126,-37 72,-37 72,-1 126,-1 126,-37"/>
<text text-anchor="middle" x="99" y="-15.3" font-family="Times,serif" font-size="14.00">*</text>
</g>
<!-- コメント
開始文字列&#45;&#45;* -->
<g id="edge8" class="edge">
<title>コメント
開始文字列&#45;&#45;*</title>
<path fill="none" stroke="black" d="M88.53,-73.83C90.7,-62.67 93.47,-48.44 95.61,-37.42"/>
</g>
<!-- 　　*
文字 -->
<g id="node10" class="node">
<title>　　*
文字</title>
<polygon fill="none" stroke="black" points="211,-38 157,-38 157,0 211,0 211,-38"/>
<text text-anchor="middle" x="184" y="-22.8" font-family="Times,serif" font-size="14.00">　　*</text>
<text text-anchor="middle" x="184" y="-7.8" font-family="Times,serif" font-size="14.00">文字</text>
</g>
<!-- コメント
文字列&#45;&#45;　　*
文字 -->
<g id="edge9" class="edge">
<title>コメント
文字列&#45;&#45;　　*
文字</title>
<path fill="none" stroke="black" d="M184,-73.83C184,-63 184,-49.29 184,-38.41"/>
</g>
<!-- *  -->
<g id="node11" class="node">
<title>* </title>
<polygon fill="none" stroke="black" points="297,-37 243,-37 243,-1 297,-1 297,-37"/>
<text text-anchor="middle" x="270" y="-15.3" font-family="Times,serif" font-size="14.00">* </text>
</g>
<!-- コメント
終了文字列&#45;&#45;*  -->
<g id="edge10" class="edge">
<title>コメント
終了文字列&#45;&#45;* </title>
<path fill="none" stroke="black" d="M279.72,-73.83C277.7,-62.67 275.14,-48.44 273.14,-37.42"/>
</g>
<!-- /  -->
<g id="node12" class="node">
<title>/ </title>
<polygon fill="none" stroke="black" points="369,-37 315,-37 315,-1 369,-1 369,-37"/>
<text text-anchor="middle" x="342" y="-15.3" font-family="Times,serif" font-size="14.00">/ </text>
</g>
<!-- コメント
終了文字列&#45;&#45;/  -->
<g id="edge11" class="edge">
<title>コメント
終了文字列&#45;&#45;/ </title>
<path fill="none" stroke="black" d="M297.89,-73.83C307.04,-62.67 318.69,-48.44 327.73,-37.42"/>
</g>
</g>
</svg>
