<?xml version="1.0" encoding="UTF-8" standalone="no"?>
<!DOCTYPE svg PUBLIC "-//W3C//DTD SVG 1.1//EN"
 "http://www.w3.org/Graphics/SVG/1.1/DTD/svg11.dtd">
<!-- Generated by graphviz version 2.50.0 (20211204.2007)
 -->
<!-- Pages: 1 -->
<svg width="481pt" height="281pt"
 viewBox="0.00 0.00 481.00 281.00" xmlns="http://www.w3.org/2000/svg" xmlns:xlink="http://www.w3.org/1999/xlink">
<g id="graph0" class="graph" transform="scale(1 1) rotate(0) translate(4 277)">
<polygon fill="white" stroke="transparent" points="-4,4 -4,-277 477,-277 477,4 -4,4"/>
<!-- テキスト -->
<g id="node1" class="node">
<title>テキスト</title>
<polygon fill="none" stroke="black" points="345.5,-273 272.5,-273 272.5,-237 345.5,-237 345.5,-273"/>
<text text-anchor="middle" x="309" y="-251.3" font-family="Times,serif" font-size="14.00">テキスト</text>
</g>
<!-- 　　　　*
文字 -->
<g id="node2" class="node">
<title>　　　　*
文字</title>
<polygon fill="none" stroke="black" points="349,-201 269,-201 269,-163 349,-163 349,-201"/>
<text text-anchor="middle" x="309" y="-185.8" font-family="Times,serif" font-size="14.00">　　　　*</text>
<text text-anchor="middle" x="309" y="-170.8" font-family="Times,serif" font-size="14.00">文字</text>
</g>
<!-- テキスト&#45;&#45;　　　　*
文字 -->
<g id="edge1" class="edge">
<title>テキスト&#45;&#45;　　　　*
文字</title>
<path fill="none" stroke="black" d="M309,-236.81C309,-225.98 309,-212.01 309,-201.02"/>
</g>
<!-- 　　　　⚪︎
タブ文字 -->
<g id="node3" class="node">
<title>　　　　⚪︎
タブ文字</title>
<polygon fill="none" stroke="black" points="247,-127 159,-127 159,-89 247,-89 247,-127"/>
<text text-anchor="middle" x="203" y="-111.8" font-family="Times,serif" font-size="14.00">　　　　⚪︎</text>
<text text-anchor="middle" x="203" y="-96.8" font-family="Times,serif" font-size="14.00">タブ文字</text>
</g>
<!-- 　　　　*
文字&#45;&#45;　　　　⚪︎
タブ文字 -->
<g id="edge2" class="edge">
<title>　　　　*
文字&#45;&#45;　　　　⚪︎
タブ文字</title>
<path fill="none" stroke="black" d="M282.25,-162.83C266.18,-151.92 245.81,-138.08 229.74,-127.16"/>
</g>
<!-- 　　　　⚪︎
改行文字 -->
<g id="node4" class="node">
<title>　　　　⚪︎
改行文字</title>
<polygon fill="none" stroke="black" points="353,-127 265,-127 265,-89 353,-89 353,-127"/>
<text text-anchor="middle" x="309" y="-111.8" font-family="Times,serif" font-size="14.00">　　　　⚪︎</text>
<text text-anchor="middle" x="309" y="-96.8" font-family="Times,serif" font-size="14.00">改行文字</text>
</g>
<!-- 　　　　*
文字&#45;&#45;　　　　⚪︎
改行文字 -->
<g id="edge3" class="edge">
<title>　　　　*
文字&#45;&#45;　　　　⚪︎
改行文字</title>
<path fill="none" stroke="black" d="M309,-162.83C309,-152 309,-138.29 309,-127.41"/>
</g>
<!-- 　　　　⚪︎
左記以外文字 -->
<g id="node5" class="node">
<title>　　　　⚪︎
左記以外文字</title>
<polygon fill="none" stroke="black" points="473,-127 371,-127 371,-89 473,-89 473,-127"/>
<text text-anchor="middle" x="422" y="-111.8" font-family="Times,serif" font-size="14.00">　　　　⚪︎</text>
<text text-anchor="middle" x="422" y="-96.8" font-family="Times,serif" font-size="14.00">左記以外文字</text>
</g>
<!-- 　　　　*
文字&#45;&#45;　　　　⚪︎
左記以外文字 -->
<g id="edge4" class="edge">
<title>　　　　*
文字&#45;&#45;　　　　⚪︎
左記以外文字</title>
<path fill="none" stroke="black" d="M337.51,-162.83C354.64,-151.92 376.37,-138.08 393.49,-127.16"/>
</g>
<!-- 　　　　⚪︎
１カラム目
タブ文字 -->
<g id="node6" class="node">
<title>　　　　⚪︎
１カラム目
タブ文字</title>
<polygon fill="none" stroke="black" points="88,-53 0,-53 0,0 88,0 88,-53"/>
<text text-anchor="middle" x="44" y="-37.8" font-family="Times,serif" font-size="14.00">　　　　⚪︎</text>
<text text-anchor="middle" x="44" y="-22.8" font-family="Times,serif" font-size="14.00">１カラム目</text>
<text text-anchor="middle" x="44" y="-7.8" font-family="Times,serif" font-size="14.00">タブ文字</text>
</g>
<!-- 　　　　⚪︎
タブ文字&#45;&#45;　　　　⚪︎
１カラム目
タブ文字 -->
<g id="edge5" class="edge">
<title>　　　　⚪︎
タブ文字&#45;&#45;　　　　⚪︎
１カラム目
タブ文字</title>
<path fill="none" stroke="black" d="M166.92,-88.96C143.56,-77.28 112.97,-61.99 88.16,-49.58"/>
</g>
<!-- 　　　　⚪︎
２カラム目
タブ文字 -->
<g id="node7" class="node">
<title>　　　　⚪︎
２カラム目
タブ文字</title>
<polygon fill="none" stroke="black" points="194,-53 106,-53 106,0 194,0 194,-53"/>
<text text-anchor="middle" x="150" y="-37.8" font-family="Times,serif" font-size="14.00">　　　　⚪︎</text>
<text text-anchor="middle" x="150" y="-22.8" font-family="Times,serif" font-size="14.00">２カラム目</text>
<text text-anchor="middle" x="150" y="-7.8" font-family="Times,serif" font-size="14.00">タブ文字</text>
</g>
<!-- 　　　　⚪︎
タブ文字&#45;&#45;　　　　⚪︎
２カラム目
タブ文字 -->
<g id="edge6" class="edge">
<title>　　　　⚪︎
タブ文字&#45;&#45;　　　　⚪︎
２カラム目
タブ文字</title>
<path fill="none" stroke="black" d="M190.97,-88.96C183.89,-78.33 174.81,-64.72 167,-53"/>
</g>
<!-- 　　　　⚪︎
３カラム目
タブ文字 -->
<g id="node8" class="node">
<title>　　　　⚪︎
３カラム目
タブ文字</title>
<polygon fill="none" stroke="black" points="300,-53 212,-53 212,0 300,0 300,-53"/>
<text text-anchor="middle" x="256" y="-37.8" font-family="Times,serif" font-size="14.00">　　　　⚪︎</text>
<text text-anchor="middle" x="256" y="-22.8" font-family="Times,serif" font-size="14.00">３カラム目</text>
<text text-anchor="middle" x="256" y="-7.8" font-family="Times,serif" font-size="14.00">タブ文字</text>
</g>
<!-- 　　　　⚪︎
タブ文字&#45;&#45;　　　　⚪︎
３カラム目
タブ文字 -->
<g id="edge7" class="edge">
<title>　　　　⚪︎
タブ文字&#45;&#45;　　　　⚪︎
３カラム目
タブ文字</title>
<path fill="none" stroke="black" d="M215.03,-88.96C222.11,-78.33 231.19,-64.72 239,-53"/>
</g>
<!-- 　　　　⚪︎
４カラム目
タブ文字 -->
<g id="node9" class="node">
<title>　　　　⚪︎
４カラム目
タブ文字</title>
<polygon fill="none" stroke="black" points="406,-53 318,-53 318,0 406,0 406,-53"/>
<text text-anchor="middle" x="362" y="-37.8" font-family="Times,serif" font-size="14.00">　　　　⚪︎</text>
<text text-anchor="middle" x="362" y="-22.8" font-family="Times,serif" font-size="14.00">４カラム目</text>
<text text-anchor="middle" x="362" y="-7.8" font-family="Times,serif" font-size="14.00">タブ文字</text>
</g>
<!-- 　　　　⚪︎
タブ文字&#45;&#45;　　　　⚪︎
４カラム目
タブ文字 -->
<g id="edge8" class="edge">
<title>　　　　⚪︎
タブ文字&#45;&#45;　　　　⚪︎
４カラム目
タブ文字</title>
<path fill="none" stroke="black" d="M239.08,-88.96C262.44,-77.28 293.03,-61.99 317.84,-49.58"/>
</g>
</g>
</svg>
