<?xml version="1.0" encoding="UTF-8" standalone="no"?>
<!DOCTYPE svg PUBLIC "-//W3C//DTD SVG 1.1//EN"
 "http://www.w3.org/Graphics/SVG/1.1/DTD/svg11.dtd">
<!-- Generated by graphviz version 2.50.0 (20211204.2007)
 -->
<!-- Pages: 1 -->
<svg width="410pt" height="266pt"
 viewBox="0.00 0.00 410.00 266.00" xmlns="http://www.w3.org/2000/svg" xmlns:xlink="http://www.w3.org/1999/xlink">
<g id="graph0" class="graph" transform="scale(1 1) rotate(0) translate(4 262)">
<polygon fill="white" stroke="transparent" points="-4,4 -4,-262 406,-262 406,4 -4,4"/>
<!-- テキスト -->
<g id="node1" class="node">
<title>テキスト</title>
<polygon fill="none" stroke="black" points="237,-258 164,-258 164,-222 237,-222 237,-258"/>
<text text-anchor="middle" x="200.5" y="-236.3" font-family="Times,serif" font-size="14.00">テキスト</text>
</g>
<!-- 　　　　*
文字 -->
<g id="node2" class="node">
<title>　　　　*
文字</title>
<polygon fill="none" stroke="black" points="240.5,-186 160.5,-186 160.5,-148 240.5,-148 240.5,-186"/>
<text text-anchor="middle" x="200.5" y="-170.8" font-family="Times,serif" font-size="14.00">　　　　*</text>
<text text-anchor="middle" x="200.5" y="-155.8" font-family="Times,serif" font-size="14.00">文字</text>
</g>
<!-- テキスト&#45;&#45;　　　　*
文字 -->
<g id="edge1" class="edge">
<title>テキスト&#45;&#45;　　　　*
文字</title>
<path fill="none" stroke="black" d="M200.5,-221.81C200.5,-210.98 200.5,-197.01 200.5,-186.02"/>
</g>
<!-- ３カラム目
文字 -->
<g id="node3" class="node">
<title>３カラム目
文字</title>
<polygon fill="none" stroke="black" points="297,-112 210,-112 210,-74 297,-74 297,-112"/>
<text text-anchor="middle" x="253.5" y="-96.8" font-family="Times,serif" font-size="14.00">３カラム目</text>
<text text-anchor="middle" x="253.5" y="-81.8" font-family="Times,serif" font-size="14.00">文字</text>
</g>
<!-- 　　　　*
文字&#45;&#45;３カラム目
文字 -->
<g id="edge2" class="edge">
<title>　　　　*
文字&#45;&#45;３カラム目
文字</title>
<path fill="none" stroke="black" d="M213.87,-147.83C221.85,-137 231.94,-123.29 239.95,-112.41"/>
</g>
<!-- ４カラム目
文字 -->
<g id="node4" class="node">
<title>４カラム目
文字</title>
<polygon fill="none" stroke="black" points="402,-112 315,-112 315,-74 402,-74 402,-112"/>
<text text-anchor="middle" x="358.5" y="-96.8" font-family="Times,serif" font-size="14.00">４カラム目</text>
<text text-anchor="middle" x="358.5" y="-81.8" font-family="Times,serif" font-size="14.00">文字</text>
</g>
<!-- 　　　　*
文字&#45;&#45;４カラム目
文字 -->
<g id="edge3" class="edge">
<title>　　　　*
文字&#45;&#45;４カラム目
文字</title>
<path fill="none" stroke="black" d="M240.37,-147.83C264.41,-136.88 294.93,-122.97 318.92,-112.04"/>
</g>
<!-- １カラム目
文字 -->
<g id="node5" class="node">
<title>１カラム目
文字</title>
<polygon fill="none" stroke="black" points="87,-112 0,-112 0,-74 87,-74 87,-112"/>
<text text-anchor="middle" x="43.5" y="-96.8" font-family="Times,serif" font-size="14.00">１カラム目</text>
<text text-anchor="middle" x="43.5" y="-81.8" font-family="Times,serif" font-size="14.00">文字</text>
</g>
<!-- 　　　　*
文字&#45;&#45;１カラム目
文字 -->
<g id="edge4" class="edge">
<title>　　　　*
文字&#45;&#45;１カラム目
文字</title>
<path fill="none" stroke="black" d="M160.88,-147.83C136.99,-136.88 106.67,-122.97 82.83,-112.04"/>
</g>
<!-- ２カラム目
文字 -->
<g id="node6" class="node">
<title>２カラム目
文字</title>
<polygon fill="none" stroke="black" points="192,-112 105,-112 105,-74 192,-74 192,-112"/>
<text text-anchor="middle" x="148.5" y="-96.8" font-family="Times,serif" font-size="14.00">２カラム目</text>
<text text-anchor="middle" x="148.5" y="-81.8" font-family="Times,serif" font-size="14.00">文字</text>
</g>
<!-- 　　　　*
文字&#45;&#45;２カラム目
文字 -->
<g id="edge5" class="edge">
<title>　　　　*
文字&#45;&#45;２カラム目
文字</title>
<path fill="none" stroke="black" d="M187.38,-147.83C179.56,-137 169.65,-123.29 161.8,-112.41"/>
</g>
<!-- 　　　⚪︎
タブ文字 -->
<g id="node7" class="node">
<title>　　　⚪︎
タブ文字</title>
<polygon fill="none" stroke="black" points="139.5,-38 65.5,-38 65.5,0 139.5,0 139.5,-38"/>
<text text-anchor="middle" x="102.5" y="-22.8" font-family="Times,serif" font-size="14.00">　　　⚪︎</text>
<text text-anchor="middle" x="102.5" y="-7.8" font-family="Times,serif" font-size="14.00">タブ文字</text>
</g>
<!-- ３カラム目
文字&#45;&#45;　　　⚪︎
タブ文字 -->
<g id="edge12" class="edge">
<title>３カラム目
文字&#45;&#45;　　　⚪︎
タブ文字</title>
<path fill="none" stroke="black" d="M215.4,-73.83C192.16,-62.75 162.59,-48.65 139.55,-37.67"/>
</g>
<!-- 　　　⚪︎
改行文字 -->
<g id="node8" class="node">
<title>　　　⚪︎
改行文字</title>
<polygon fill="none" stroke="black" points="231.5,-38 157.5,-38 157.5,0 231.5,0 231.5,-38"/>
<text text-anchor="middle" x="194.5" y="-22.8" font-family="Times,serif" font-size="14.00">　　　⚪︎</text>
<text text-anchor="middle" x="194.5" y="-7.8" font-family="Times,serif" font-size="14.00">改行文字</text>
</g>
<!-- ３カラム目
文字&#45;&#45;　　　⚪︎
改行文字 -->
<g id="edge13" class="edge">
<title>３カラム目
文字&#45;&#45;　　　⚪︎
改行文字</title>
<path fill="none" stroke="black" d="M238.61,-73.83C229.74,-63 218.5,-49.29 209.59,-38.41"/>
</g>
<!-- 　　　⚪︎
左記以外文字 -->
<g id="node9" class="node">
<title>　　　⚪︎
左記以外文字</title>
<polygon fill="none" stroke="black" points="351.5,-38 249.5,-38 249.5,0 351.5,0 351.5,-38"/>
<text text-anchor="middle" x="300.5" y="-22.8" font-family="Times,serif" font-size="14.00">　　　⚪︎</text>
<text text-anchor="middle" x="300.5" y="-7.8" font-family="Times,serif" font-size="14.00">左記以外文字</text>
</g>
<!-- ３カラム目
文字&#45;&#45;　　　⚪︎
左記以外文字 -->
<g id="edge14" class="edge">
<title>３カラム目
文字&#45;&#45;　　　⚪︎
左記以外文字</title>
<path fill="none" stroke="black" d="M265.36,-73.83C272.43,-63 281.38,-49.29 288.48,-38.41"/>
</g>
<!-- ４カラム目
文字&#45;&#45;　　　⚪︎
タブ文字 -->
<g id="edge15" class="edge">
<title>４カラム目
文字&#45;&#45;　　　⚪︎
タブ文字</title>
<path fill="none" stroke="black" d="M314.92,-76.53C312.08,-75.64 309.26,-74.79 306.5,-74 237.26,-54.19 217.34,-59.18 148.5,-38 145.63,-37.12 142.69,-36.14 139.74,-35.11"/>
</g>
<!-- ４カラム目
文字&#45;&#45;　　　⚪︎
改行文字 -->
<g id="edge16" class="edge">
<title>４カラム目
文字&#45;&#45;　　　⚪︎
改行文字</title>
<path fill="none" stroke="black" d="M317.12,-73.83C290.83,-62.29 257.1,-47.48 231.67,-36.32"/>
</g>
<!-- ４カラム目
文字&#45;&#45;　　　⚪︎
左記以外文字 -->
<g id="edge17" class="edge">
<title>４カラム目
文字&#45;&#45;　　　⚪︎
左記以外文字</title>
<path fill="none" stroke="black" d="M343.86,-73.83C335.14,-63 324.09,-49.29 315.33,-38.41"/>
</g>
<!-- １カラム目
文字&#45;&#45;　　　⚪︎
タブ文字 -->
<g id="edge6" class="edge">
<title>１カラム目
文字&#45;&#45;　　　⚪︎
タブ文字</title>
<path fill="none" stroke="black" d="M58.39,-73.83C67.26,-63 78.5,-49.29 87.41,-38.41"/>
</g>
<!-- １カラム目
文字&#45;&#45;　　　⚪︎
改行文字 -->
<g id="edge7" class="edge">
<title>１カラム目
文字&#45;&#45;　　　⚪︎
改行文字</title>
<path fill="none" stroke="black" d="M81.6,-73.83C104.84,-62.75 134.41,-48.65 157.45,-37.67"/>
</g>
<!-- １カラム目
文字&#45;&#45;　　　⚪︎
左記以外文字 -->
<g id="edge8" class="edge">
<title>１カラム目
文字&#45;&#45;　　　⚪︎
左記以外文字</title>
<path fill="none" stroke="black" d="M87.08,-76.88C90.26,-75.88 93.42,-74.91 96.5,-74 159.79,-55.38 176.89,-55.48 240.5,-38 243.44,-37.19 246.45,-36.35 249.48,-35.48"/>
</g>
<!-- ２カラム目
文字&#45;&#45;　　　⚪︎
タブ文字 -->
<g id="edge9" class="edge">
<title>２カラム目
文字&#45;&#45;　　　⚪︎
タブ文字</title>
<path fill="none" stroke="black" d="M136.89,-73.83C129.97,-63 121.21,-49.29 114.26,-38.41"/>
</g>
<!-- ２カラム目
文字&#45;&#45;　　　⚪︎
改行文字 -->
<g id="edge10" class="edge">
<title>２カラム目
文字&#45;&#45;　　　⚪︎
改行文字</title>
<path fill="none" stroke="black" d="M160.11,-73.83C167.03,-63 175.79,-49.29 182.74,-38.41"/>
</g>
<!-- ２カラム目
文字&#45;&#45;　　　⚪︎
左記以外文字 -->
<g id="edge11" class="edge">
<title>２カラム目
文字&#45;&#45;　　　⚪︎
左記以外文字</title>
<path fill="none" stroke="black" d="M186.86,-73.83C209.99,-62.88 239.34,-48.97 262.42,-38.04"/>
</g>
</g>
</svg>
