<?xml version="1.0" encoding="UTF-8" standalone="no"?>
<!DOCTYPE svg PUBLIC "-//W3C//DTD SVG 1.1//EN"
 "http://www.w3.org/Graphics/SVG/1.1/DTD/svg11.dtd">
<!-- Generated by graphviz version 2.50.0 (20211204.2007)
 -->
<!-- Pages: 1 -->
<svg width="1028pt" height="575pt"
 viewBox="0.00 0.00 1027.50 575.00" xmlns="http://www.w3.org/2000/svg" xmlns:xlink="http://www.w3.org/1999/xlink">
<g id="graph0" class="graph" transform="scale(1 1) rotate(0) translate(4 571)">
<polygon fill="white" stroke="transparent" points="-4,4 -4,-571 1023.5,-571 1023.5,4 -4,4"/>
<!-- 浮動小数点数 -->
<g id="node1" class="node">
<title>浮動小数点数</title>
<polygon fill="none" stroke="black" points="408.5,-567 306.5,-567 306.5,-531 408.5,-531 408.5,-567"/>
<text text-anchor="middle" x="357.5" y="-545.3" font-family="Times,serif" font-size="14.00">浮動小数点数</text>
</g>
<!-- 仮数部 -->
<g id="node2" class="node">
<title>仮数部</title>
<polygon fill="none" stroke="black" points="341,-495 282,-495 282,-459 341,-459 341,-495"/>
<text text-anchor="middle" x="311.5" y="-473.3" font-family="Times,serif" font-size="14.00">仮数部</text>
</g>
<!-- 浮動小数点数&#45;&#45;仮数部 -->
<g id="edge1" class="edge">
<title>浮動小数点数&#45;&#45;仮数部</title>
<path fill="none" stroke="black" d="M346.13,-530.7C339,-519.85 329.85,-505.92 322.74,-495.1"/>
</g>
<!-- 指数部 -->
<g id="node3" class="node">
<title>指数部</title>
<polygon fill="none" stroke="black" points="492,-495 433,-495 433,-459 492,-459 492,-495"/>
<text text-anchor="middle" x="462.5" y="-473.3" font-family="Times,serif" font-size="14.00">指数部</text>
</g>
<!-- 浮動小数点数&#45;&#45;指数部 -->
<g id="edge2" class="edge">
<title>浮動小数点数&#45;&#45;指数部</title>
<path fill="none" stroke="black" d="M383.19,-530.88C399.46,-520.03 420.43,-506.05 436.72,-495.19"/>
</g>
<!-- 符号 -->
<g id="node4" class="node">
<title>符号</title>
<polygon fill="none" stroke="black" points="172.5,-422 118.5,-422 118.5,-386 172.5,-386 172.5,-422"/>
<text text-anchor="middle" x="145.5" y="-400.3" font-family="Times,serif" font-size="14.00">符号</text>
</g>
<!-- 仮数部&#45;&#45;符号 -->
<g id="edge3" class="edge">
<title>仮数部&#45;&#45;符号</title>
<path fill="none" stroke="black" d="M281.82,-463.31C250.86,-450.06 202.73,-429.48 172.72,-416.64"/>
</g>
<!-- 仮数値 -->
<g id="node8" class="node">
<title>仮数値</title>
<polygon fill="none" stroke="black" points="341,-422 282,-422 282,-386 341,-386 341,-422"/>
<text text-anchor="middle" x="311.5" y="-400.3" font-family="Times,serif" font-size="14.00">仮数値</text>
</g>
<!-- 仮数部&#45;&#45;仮数値 -->
<g id="edge7" class="edge">
<title>仮数部&#45;&#45;仮数値</title>
<path fill="none" stroke="black" d="M311.5,-458.81C311.5,-447.65 311.5,-433.16 311.5,-422.03"/>
</g>
<!-- 　　　　⚪︎
指数部なし -->
<g id="node30" class="node">
<title>　　　　⚪︎
指数部なし</title>
<polygon fill="none" stroke="black" points="506.5,-423 418.5,-423 418.5,-385 506.5,-385 506.5,-423"/>
<text text-anchor="middle" x="462.5" y="-407.8" font-family="Times,serif" font-size="14.00">　　　　⚪︎</text>
<text text-anchor="middle" x="462.5" y="-392.8" font-family="Times,serif" font-size="14.00">指数部なし</text>
</g>
<!-- 指数部&#45;&#45;　　　　⚪︎
指数部なし -->
<g id="edge29" class="edge">
<title>指数部&#45;&#45;　　　　⚪︎
指数部なし</title>
<path fill="none" stroke="black" d="M462.5,-458.81C462.5,-447.98 462.5,-434.01 462.5,-423.02"/>
</g>
<!-- 　　　　⚪︎
指数部あり -->
<g id="node31" class="node">
<title>　　　　⚪︎
指数部あり</title>
<polygon fill="none" stroke="black" points="718.5,-423 630.5,-423 630.5,-385 718.5,-385 718.5,-423"/>
<text text-anchor="middle" x="674.5" y="-407.8" font-family="Times,serif" font-size="14.00">　　　　⚪︎</text>
<text text-anchor="middle" x="674.5" y="-392.8" font-family="Times,serif" font-size="14.00">指数部あり</text>
</g>
<!-- 指数部&#45;&#45;　　　　⚪︎
指数部あり -->
<g id="edge30" class="edge">
<title>指数部&#45;&#45;　　　　⚪︎
指数部あり</title>
<path fill="none" stroke="black" d="M492.42,-465.98C528.38,-453.94 589.01,-433.63 630.35,-419.79"/>
</g>
<!-- 　　⚪︎
＋ -->
<g id="node5" class="node">
<title>　　⚪︎
＋</title>
<polygon fill="none" stroke="black" points="59,-341.5 0,-341.5 0,-303.5 59,-303.5 59,-341.5"/>
<text text-anchor="middle" x="29.5" y="-326.3" font-family="Times,serif" font-size="14.00">　　⚪︎</text>
<text text-anchor="middle" x="29.5" y="-311.3" font-family="Times,serif" font-size="14.00">＋</text>
</g>
<!-- 符号&#45;&#45;　　⚪︎
＋ -->
<g id="edge4" class="edge">
<title>符号&#45;&#45;　　⚪︎
＋</title>
<path fill="none" stroke="black" d="M120.62,-385.95C101.58,-372.9 75.38,-354.94 55.96,-341.63"/>
</g>
<!-- 　　⚪︎
－ -->
<g id="node6" class="node">
<title>　　⚪︎
－</title>
<polygon fill="none" stroke="black" points="136,-341.5 77,-341.5 77,-303.5 136,-303.5 136,-341.5"/>
<text text-anchor="middle" x="106.5" y="-326.3" font-family="Times,serif" font-size="14.00">　　⚪︎</text>
<text text-anchor="middle" x="106.5" y="-311.3" font-family="Times,serif" font-size="14.00">－</text>
</g>
<!-- 符号&#45;&#45;　　⚪︎
－ -->
<g id="edge5" class="edge">
<title>符号&#45;&#45;　　⚪︎
－</title>
<path fill="none" stroke="black" d="M137.04,-385.75C130.63,-372.69 121.85,-354.8 115.35,-341.54"/>
</g>
<!-- 　　⚪︎
なし -->
<g id="node7" class="node">
<title>　　⚪︎
なし</title>
<polygon fill="none" stroke="black" points="213,-341.5 154,-341.5 154,-303.5 213,-303.5 213,-341.5"/>
<text text-anchor="middle" x="183.5" y="-326.3" font-family="Times,serif" font-size="14.00">　　⚪︎</text>
<text text-anchor="middle" x="183.5" y="-311.3" font-family="Times,serif" font-size="14.00">なし</text>
</g>
<!-- 符号&#45;&#45;　　⚪︎
なし -->
<g id="edge6" class="edge">
<title>符号&#45;&#45;　　⚪︎
なし</title>
<path fill="none" stroke="black" d="M153.75,-385.75C159.99,-372.69 168.54,-354.8 174.87,-341.54"/>
</g>
<!-- 　　　　　⚪︎
整数部なし
仮数値 -->
<g id="node9" class="node">
<title>　　　　　⚪︎
整数部なし
仮数値</title>
<polygon fill="none" stroke="black" points="333.5,-349 231.5,-349 231.5,-296 333.5,-296 333.5,-349"/>
<text text-anchor="middle" x="282.5" y="-333.8" font-family="Times,serif" font-size="14.00">　　　　　⚪︎</text>
<text text-anchor="middle" x="282.5" y="-318.8" font-family="Times,serif" font-size="14.00">整数部なし</text>
<text text-anchor="middle" x="282.5" y="-303.8" font-family="Times,serif" font-size="14.00">仮数値</text>
</g>
<!-- 仮数値&#45;&#45;　　　　　⚪︎
整数部なし
仮数値 -->
<g id="edge8" class="edge">
<title>仮数値&#45;&#45;　　　　　⚪︎
整数部なし
仮数値</title>
<path fill="none" stroke="black" d="M305.21,-385.75C301.31,-375.06 296.23,-361.14 291.87,-349.18"/>
</g>
<!-- 　　　　　⚪︎
整数部あり
仮数値 -->
<g id="node10" class="node">
<title>　　　　　⚪︎
整数部あり
仮数値</title>
<polygon fill="none" stroke="black" points="482.5,-349 380.5,-349 380.5,-296 482.5,-296 482.5,-349"/>
<text text-anchor="middle" x="431.5" y="-333.8" font-family="Times,serif" font-size="14.00">　　　　　⚪︎</text>
<text text-anchor="middle" x="431.5" y="-318.8" font-family="Times,serif" font-size="14.00">整数部あり</text>
<text text-anchor="middle" x="431.5" y="-303.8" font-family="Times,serif" font-size="14.00">仮数値</text>
</g>
<!-- 仮数値&#45;&#45;　　　　　⚪︎
整数部あり
仮数値 -->
<g id="edge9" class="edge">
<title>仮数値&#45;&#45;　　　　　⚪︎
整数部あり
仮数値</title>
<path fill="none" stroke="black" d="M337.24,-385.95C353.36,-375.27 374.43,-361.31 392.56,-349.3"/>
</g>
<!-- 小数点 -->
<g id="node11" class="node">
<title>小数点</title>
<polygon fill="none" stroke="black" points="143,-259 84,-259 84,-223 143,-223 143,-259"/>
<text text-anchor="middle" x="113.5" y="-237.3" font-family="Times,serif" font-size="14.00">小数点</text>
</g>
<!-- 　　　　　⚪︎
整数部なし
仮数値&#45;&#45;小数点 -->
<g id="edge10" class="edge">
<title>　　　　　⚪︎
整数部なし
仮数値&#45;&#45;小数点</title>
<path fill="none" stroke="black" d="M231.34,-297.43C202.58,-283.9 167.69,-267.49 143.37,-256.05"/>
</g>
<!-- 少数部 -->
<g id="node13" class="node">
<title>少数部</title>
<polygon fill="none" stroke="black" points="272,-259 213,-259 213,-223 272,-223 272,-259"/>
<text text-anchor="middle" x="242.5" y="-237.3" font-family="Times,serif" font-size="14.00">少数部</text>
</g>
<!-- 　　　　　⚪︎
整数部なし
仮数値&#45;&#45;少数部 -->
<g id="edge12" class="edge">
<title>　　　　　⚪︎
整数部なし
仮数値&#45;&#45;少数部</title>
<path fill="none" stroke="black" d="M269.62,-295.91C263.59,-283.92 256.57,-269.97 251.18,-259.26"/>
</g>
<!-- 整数部 -->
<g id="node19" class="node">
<title>整数部</title>
<polygon fill="none" stroke="black" points="421,-259 362,-259 362,-223 421,-223 421,-259"/>
<text text-anchor="middle" x="391.5" y="-237.3" font-family="Times,serif" font-size="14.00">整数部</text>
</g>
<!-- 　　　　　⚪︎
整数部あり
仮数値&#45;&#45;整数部 -->
<g id="edge18" class="edge">
<title>　　　　　⚪︎
整数部あり
仮数値&#45;&#45;整数部</title>
<path fill="none" stroke="black" d="M418.62,-295.91C412.59,-283.92 405.57,-269.97 400.18,-259.26"/>
</g>
<!-- 小数点  -->
<g id="node20" class="node">
<title>小数点 </title>
<polygon fill="none" stroke="black" points="503.5,-259 439.5,-259 439.5,-223 503.5,-223 503.5,-259"/>
<text text-anchor="middle" x="471.5" y="-237.3" font-family="Times,serif" font-size="14.00">小数点 </text>
</g>
<!-- 　　　　　⚪︎
整数部あり
仮数値&#45;&#45;小数点  -->
<g id="edge19" class="edge">
<title>　　　　　⚪︎
整数部あり
仮数値&#45;&#45;小数点 </title>
<path fill="none" stroke="black" d="M444.38,-295.91C450.41,-283.92 457.43,-269.97 462.82,-259.26"/>
</g>
<!-- 少数部  -->
<g id="node21" class="node">
<title>少数部 </title>
<polygon fill="none" stroke="black" points="585.5,-259 521.5,-259 521.5,-223 585.5,-223 585.5,-259"/>
<text text-anchor="middle" x="553.5" y="-237.3" font-family="Times,serif" font-size="14.00">少数部 </text>
</g>
<!-- 　　　　　⚪︎
整数部あり
仮数値&#45;&#45;少数部  -->
<g id="edge20" class="edge">
<title>　　　　　⚪︎
整数部あり
仮数値&#45;&#45;少数部 </title>
<path fill="none" stroke="black" d="M470.77,-295.91C489.3,-283.83 510.91,-269.76 527.39,-259.01"/>
</g>
<!-- ・ -->
<g id="node12" class="node">
<title>・</title>
<polygon fill="none" stroke="black" points="88.5,-185 34.5,-185 34.5,-149 88.5,-149 88.5,-185"/>
<text text-anchor="middle" x="61.5" y="-163.3" font-family="Times,serif" font-size="14.00">・</text>
</g>
<!-- 小数点&#45;&#45;・ -->
<g id="edge11" class="edge">
<title>小数点&#45;&#45;・</title>
<path fill="none" stroke="black" d="M101.18,-222.94C93.01,-211.63 82.32,-196.83 74.1,-185.44"/>
</g>
<!-- １文字目
数値 -->
<g id="node14" class="node">
<title>１文字目
数値</title>
<polygon fill="none" stroke="black" points="180.5,-186 106.5,-186 106.5,-148 180.5,-148 180.5,-186"/>
<text text-anchor="middle" x="143.5" y="-170.8" font-family="Times,serif" font-size="14.00">１文字目</text>
<text text-anchor="middle" x="143.5" y="-155.8" font-family="Times,serif" font-size="14.00">数値</text>
</g>
<!-- 少数部&#45;&#45;１文字目
数値 -->
<g id="edge13" class="edge">
<title>少数部&#45;&#45;１文字目
数値</title>
<path fill="none" stroke="black" d="M219.04,-222.94C203.83,-211.88 184.03,-197.48 168.52,-186.2"/>
</g>
<!-- ２文字目
以降数値列 -->
<g id="node15" class="node">
<title>２文字目
以降数値列</title>
<polygon fill="none" stroke="black" points="286.5,-186 198.5,-186 198.5,-148 286.5,-148 286.5,-186"/>
<text text-anchor="middle" x="242.5" y="-170.8" font-family="Times,serif" font-size="14.00">２文字目</text>
<text text-anchor="middle" x="242.5" y="-155.8" font-family="Times,serif" font-size="14.00">以降数値列</text>
</g>
<!-- 少数部&#45;&#45;２文字目
以降数値列 -->
<g id="edge14" class="edge">
<title>少数部&#45;&#45;２文字目
以降数値列</title>
<path fill="none" stroke="black" d="M242.5,-222.94C242.5,-211.88 242.5,-197.48 242.5,-186.2"/>
</g>
<!-- 　　⚪︎
０〜９ -->
<g id="node16" class="node">
<title>　　⚪︎
０〜９</title>
<polygon fill="none" stroke="black" points="173,-112 114,-112 114,-74 173,-74 173,-112"/>
<text text-anchor="middle" x="143.5" y="-96.8" font-family="Times,serif" font-size="14.00">　　⚪︎</text>
<text text-anchor="middle" x="143.5" y="-81.8" font-family="Times,serif" font-size="14.00">０〜９</text>
</g>
<!-- １文字目
数値&#45;&#45;　　⚪︎
０〜９ -->
<g id="edge15" class="edge">
<title>１文字目
数値&#45;&#45;　　⚪︎
０〜９</title>
<path fill="none" stroke="black" d="M143.5,-147.83C143.5,-137 143.5,-123.29 143.5,-112.41"/>
</g>
<!-- 　　*
数値 -->
<g id="node17" class="node">
<title>　　*
数値</title>
<polygon fill="none" stroke="black" points="269.5,-112 215.5,-112 215.5,-74 269.5,-74 269.5,-112"/>
<text text-anchor="middle" x="242.5" y="-96.8" font-family="Times,serif" font-size="14.00">　　*</text>
<text text-anchor="middle" x="242.5" y="-81.8" font-family="Times,serif" font-size="14.00">数値</text>
</g>
<!-- ２文字目
以降数値列&#45;&#45;　　*
数値 -->
<g id="edge16" class="edge">
<title>２文字目
以降数値列&#45;&#45;　　*
数値</title>
<path fill="none" stroke="black" d="M242.5,-147.83C242.5,-137 242.5,-123.29 242.5,-112.41"/>
</g>
<!-- 　　⚪︎
０〜９  -->
<g id="node18" class="node">
<title>　　⚪︎
０〜９ </title>
<polygon fill="none" stroke="black" points="274.5,-38 210.5,-38 210.5,0 274.5,0 274.5,-38"/>
<text text-anchor="middle" x="242.5" y="-22.8" font-family="Times,serif" font-size="14.00">　　⚪︎</text>
<text text-anchor="middle" x="242.5" y="-7.8" font-family="Times,serif" font-size="14.00">０〜９ </text>
</g>
<!-- 　　*
数値&#45;&#45;　　⚪︎
０〜９  -->
<g id="edge17" class="edge">
<title>　　*
数値&#45;&#45;　　⚪︎
０〜９ </title>
<path fill="none" stroke="black" d="M242.5,-73.83C242.5,-63 242.5,-49.29 242.5,-38.41"/>
</g>
<!-- １文字目
数値  -->
<g id="node22" class="node">
<title>１文字目
数値 </title>
<polygon fill="none" stroke="black" points="378.5,-186 304.5,-186 304.5,-148 378.5,-148 378.5,-186"/>
<text text-anchor="middle" x="341.5" y="-170.8" font-family="Times,serif" font-size="14.00">１文字目</text>
<text text-anchor="middle" x="341.5" y="-155.8" font-family="Times,serif" font-size="14.00">数値 </text>
</g>
<!-- 整数部&#45;&#45;１文字目
数値  -->
<g id="edge21" class="edge">
<title>整数部&#45;&#45;１文字目
数値 </title>
<path fill="none" stroke="black" d="M379.65,-222.94C371.97,-211.88 361.97,-197.48 354.14,-186.2"/>
</g>
<!-- ２文字目
以降数値列  -->
<g id="node23" class="node">
<title>２文字目
以降数値列 </title>
<polygon fill="none" stroke="black" points="488.5,-186 396.5,-186 396.5,-148 488.5,-148 488.5,-186"/>
<text text-anchor="middle" x="442.5" y="-170.8" font-family="Times,serif" font-size="14.00">２文字目</text>
<text text-anchor="middle" x="442.5" y="-155.8" font-family="Times,serif" font-size="14.00">以降数値列 </text>
</g>
<!-- 整数部&#45;&#45;２文字目
以降数値列  -->
<g id="edge22" class="edge">
<title>整数部&#45;&#45;２文字目
以降数値列 </title>
<path fill="none" stroke="black" d="M403.59,-222.94C411.42,-211.88 421.62,-197.48 429.61,-186.2"/>
</g>
<!-- ・  -->
<g id="node27" class="node">
<title>・ </title>
<polygon fill="none" stroke="black" points="560.5,-185 506.5,-185 506.5,-149 560.5,-149 560.5,-185"/>
<text text-anchor="middle" x="533.5" y="-163.3" font-family="Times,serif" font-size="14.00">・ </text>
</g>
<!-- 小数点 &#45;&#45;・  -->
<g id="edge26" class="edge">
<title>小数点 &#45;&#45;・ </title>
<path fill="none" stroke="black" d="M486.19,-222.94C495.93,-211.63 508.68,-196.83 518.48,-185.44"/>
</g>
<!-- 数値列 -->
<g id="node28" class="node">
<title>数値列</title>
<polygon fill="none" stroke="black" points="638,-185 579,-185 579,-149 638,-149 638,-185"/>
<text text-anchor="middle" x="608.5" y="-163.3" font-family="Times,serif" font-size="14.00">数値列</text>
</g>
<!-- 少数部 &#45;&#45;数値列 -->
<g id="edge27" class="edge">
<title>少数部 &#45;&#45;数値列</title>
<path fill="none" stroke="black" d="M566.53,-222.94C575.17,-211.63 586.48,-196.83 595.18,-185.44"/>
</g>
<!-- 　　⚪︎
０〜９ &#160; -->
<g id="node24" class="node">
<title>　　⚪︎
０〜９ &#160;</title>
<polygon fill="none" stroke="black" points="375.5,-112 307.5,-112 307.5,-74 375.5,-74 375.5,-112"/>
<text text-anchor="middle" x="341.5" y="-96.8" font-family="Times,serif" font-size="14.00">　　⚪︎</text>
<text text-anchor="middle" x="341.5" y="-81.8" font-family="Times,serif" font-size="14.00">０〜９ &#160;</text>
</g>
<!-- １文字目
数値 &#45;&#45;　　⚪︎
０〜９ &#160; -->
<g id="edge23" class="edge">
<title>１文字目
数値 &#45;&#45;　　⚪︎
０〜９ &#160;</title>
<path fill="none" stroke="black" d="M341.5,-147.83C341.5,-137 341.5,-123.29 341.5,-112.41"/>
</g>
<!-- 　　*
数値  -->
<g id="node25" class="node">
<title>　　*
数値 </title>
<polygon fill="none" stroke="black" points="469.5,-112 415.5,-112 415.5,-74 469.5,-74 469.5,-112"/>
<text text-anchor="middle" x="442.5" y="-96.8" font-family="Times,serif" font-size="14.00">　　*</text>
<text text-anchor="middle" x="442.5" y="-81.8" font-family="Times,serif" font-size="14.00">数値 </text>
</g>
<!-- ２文字目
以降数値列 &#45;&#45;　　*
数値  -->
<g id="edge24" class="edge">
<title>２文字目
以降数値列 &#45;&#45;　　*
数値 </title>
<path fill="none" stroke="black" d="M442.5,-147.83C442.5,-137 442.5,-123.29 442.5,-112.41"/>
</g>
<!-- 　　⚪︎
 ０〜９ -->
<g id="node26" class="node">
<title>　　⚪︎
 ０〜９</title>
<polygon fill="none" stroke="black" points="474.5,-38 410.5,-38 410.5,0 474.5,0 474.5,-38"/>
<text text-anchor="middle" x="442.5" y="-22.8" font-family="Times,serif" font-size="14.00">　　⚪︎</text>
<text text-anchor="middle" x="442.5" y="-7.8" font-family="Times,serif" font-size="14.00"> ０〜９</text>
</g>
<!-- 　　*
数値 &#45;&#45;　　⚪︎
 ０〜９ -->
<g id="edge25" class="edge">
<title>　　*
数値 &#45;&#45;　　⚪︎
 ０〜９</title>
<path fill="none" stroke="black" d="M442.5,-73.83C442.5,-63 442.5,-49.29 442.5,-38.41"/>
</g>
<!-- 　　*
 数値 -->
<g id="node29" class="node">
<title>　　*
 数値</title>
<polygon fill="none" stroke="black" points="635.5,-112 581.5,-112 581.5,-74 635.5,-74 635.5,-112"/>
<text text-anchor="middle" x="608.5" y="-96.8" font-family="Times,serif" font-size="14.00">　　*</text>
<text text-anchor="middle" x="608.5" y="-81.8" font-family="Times,serif" font-size="14.00"> 数値</text>
</g>
<!-- 数値列&#45;&#45;　　*
 数値 -->
<g id="edge28" class="edge">
<title>数値列&#45;&#45;　　*
 数値</title>
<path fill="none" stroke="black" d="M608.5,-148.94C608.5,-137.88 608.5,-123.48 608.5,-112.2"/>
</g>
<!-- E or e -->
<g id="node32" class="node">
<title>E or e</title>
<polygon fill="none" stroke="black" points="665.5,-340.5 611.5,-340.5 611.5,-304.5 665.5,-304.5 665.5,-340.5"/>
<text text-anchor="middle" x="638.5" y="-318.8" font-family="Times,serif" font-size="14.00">E or e</text>
</g>
<!-- 　　　　⚪︎
指数部あり&#45;&#45;E or e -->
<g id="edge31" class="edge">
<title>　　　　⚪︎
指数部あり&#45;&#45;E or e</title>
<path fill="none" stroke="black" d="M666.33,-384.96C660.31,-371.67 652.19,-353.72 646.27,-340.65"/>
</g>
<!-- 符号  -->
<g id="node33" class="node">
<title>符号 </title>
<polygon fill="none" stroke="black" points="737.5,-340.5 683.5,-340.5 683.5,-304.5 737.5,-304.5 737.5,-340.5"/>
<text text-anchor="middle" x="710.5" y="-318.8" font-family="Times,serif" font-size="14.00">符号 </text>
</g>
<!-- 　　　　⚪︎
指数部あり&#45;&#45;符号  -->
<g id="edge32" class="edge">
<title>　　　　⚪︎
指数部あり&#45;&#45;符号 </title>
<path fill="none" stroke="black" d="M682.67,-384.96C688.69,-371.67 696.81,-353.72 702.73,-340.65"/>
</g>
<!-- 整数部  -->
<g id="node34" class="node">
<title>整数部 </title>
<polygon fill="none" stroke="black" points="906.5,-340.5 842.5,-340.5 842.5,-304.5 906.5,-304.5 906.5,-340.5"/>
<text text-anchor="middle" x="874.5" y="-318.8" font-family="Times,serif" font-size="14.00">整数部 </text>
</g>
<!-- 　　　　⚪︎
指数部あり&#45;&#45;整数部  -->
<g id="edge33" class="edge">
<title>　　　　⚪︎
指数部あり&#45;&#45;整数部 </title>
<path fill="none" stroke="black" d="M718.89,-385.36C756.29,-370.49 808.91,-349.57 842.36,-336.28"/>
</g>
<!-- 　　⚪︎
 ＋ -->
<g id="node35" class="node">
<title>　　⚪︎
 ＋</title>
<polygon fill="none" stroke="black" points="663,-260 604,-260 604,-222 663,-222 663,-260"/>
<text text-anchor="middle" x="633.5" y="-244.8" font-family="Times,serif" font-size="14.00">　　⚪︎</text>
<text text-anchor="middle" x="633.5" y="-229.8" font-family="Times,serif" font-size="14.00"> ＋</text>
</g>
<!-- 符号 &#45;&#45;　　⚪︎
 ＋ -->
<g id="edge34" class="edge">
<title>符号 &#45;&#45;　　⚪︎
 ＋</title>
<path fill="none" stroke="black" d="M693.79,-304.25C681.14,-291.19 663.81,-273.3 650.98,-260.04"/>
</g>
<!-- 　　⚪︎
 － -->
<g id="node36" class="node">
<title>　　⚪︎
 －</title>
<polygon fill="none" stroke="black" points="740,-260 681,-260 681,-222 740,-222 740,-260"/>
<text text-anchor="middle" x="710.5" y="-244.8" font-family="Times,serif" font-size="14.00">　　⚪︎</text>
<text text-anchor="middle" x="710.5" y="-229.8" font-family="Times,serif" font-size="14.00"> －</text>
</g>
<!-- 符号 &#45;&#45;　　⚪︎
 － -->
<g id="edge35" class="edge">
<title>符号 &#45;&#45;　　⚪︎
 －</title>
<path fill="none" stroke="black" d="M710.5,-304.25C710.5,-291.19 710.5,-273.3 710.5,-260.04"/>
</g>
<!-- 　　⚪︎
 なし -->
<g id="node37" class="node">
<title>　　⚪︎
 なし</title>
<polygon fill="none" stroke="black" points="817,-260 758,-260 758,-222 817,-222 817,-260"/>
<text text-anchor="middle" x="787.5" y="-244.8" font-family="Times,serif" font-size="14.00">　　⚪︎</text>
<text text-anchor="middle" x="787.5" y="-229.8" font-family="Times,serif" font-size="14.00"> なし</text>
</g>
<!-- 符号 &#45;&#45;　　⚪︎
 なし -->
<g id="edge36" class="edge">
<title>符号 &#45;&#45;　　⚪︎
 なし</title>
<path fill="none" stroke="black" d="M727.21,-304.25C739.86,-291.19 757.19,-273.3 770.02,-260.04"/>
</g>
<!--  １文字目
数値 -->
<g id="node38" class="node">
<title> １文字目
数値</title>
<polygon fill="none" stroke="black" points="913.5,-260 835.5,-260 835.5,-222 913.5,-222 913.5,-260"/>
<text text-anchor="middle" x="874.5" y="-244.8" font-family="Times,serif" font-size="14.00"> １文字目</text>
<text text-anchor="middle" x="874.5" y="-229.8" font-family="Times,serif" font-size="14.00">数値</text>
</g>
<!-- 整数部 &#45;&#45; １文字目
数値 -->
<g id="edge37" class="edge">
<title>整数部 &#45;&#45; １文字目
数値</title>
<path fill="none" stroke="black" d="M874.5,-304.25C874.5,-291.19 874.5,-273.3 874.5,-260.04"/>
</g>
<!--  ２文字目
以降数値列 -->
<g id="node39" class="node">
<title> ２文字目
以降数値列</title>
<polygon fill="none" stroke="black" points="1019.5,-260 931.5,-260 931.5,-222 1019.5,-222 1019.5,-260"/>
<text text-anchor="middle" x="975.5" y="-244.8" font-family="Times,serif" font-size="14.00"> ２文字目</text>
<text text-anchor="middle" x="975.5" y="-229.8" font-family="Times,serif" font-size="14.00">以降数値列</text>
</g>
<!-- 整数部 &#45;&#45; ２文字目
以降数値列 -->
<g id="edge38" class="edge">
<title>整数部 &#45;&#45; ２文字目
以降数値列</title>
<path fill="none" stroke="black" d="M896.42,-304.25C913.01,-291.19 935.74,-273.3 952.58,-260.04"/>
</g>
<!--  　　⚪︎
０〜９ -->
<g id="node40" class="node">
<title> 　　⚪︎
０〜９</title>
<polygon fill="none" stroke="black" points="906.5,-186 842.5,-186 842.5,-148 906.5,-148 906.5,-186"/>
<text text-anchor="middle" x="874.5" y="-170.8" font-family="Times,serif" font-size="14.00"> 　　⚪︎</text>
<text text-anchor="middle" x="874.5" y="-155.8" font-family="Times,serif" font-size="14.00">０〜９</text>
</g>
<!--  １文字目
数値&#45;&#45; 　　⚪︎
０〜９ -->
<g id="edge39" class="edge">
<title> １文字目
数値&#45;&#45; 　　⚪︎
０〜９</title>
<path fill="none" stroke="black" d="M874.5,-221.83C874.5,-211 874.5,-197.29 874.5,-186.41"/>
</g>
<!-- 　　*
 数値  -->
<g id="node41" class="node">
<title>　　*
 数値 </title>
<polygon fill="none" stroke="black" points="1002.5,-186 948.5,-186 948.5,-148 1002.5,-148 1002.5,-186"/>
<text text-anchor="middle" x="975.5" y="-170.8" font-family="Times,serif" font-size="14.00">　　*</text>
<text text-anchor="middle" x="975.5" y="-155.8" font-family="Times,serif" font-size="14.00"> 数値 </text>
</g>
<!--  ２文字目
以降数値列&#45;&#45;　　*
 数値  -->
<g id="edge40" class="edge">
<title> ２文字目
以降数値列&#45;&#45;　　*
 数値 </title>
<path fill="none" stroke="black" d="M975.5,-221.83C975.5,-211 975.5,-197.29 975.5,-186.41"/>
</g>
<!-- 　　 ⚪︎
０〜９ -->
<g id="node42" class="node">
<title>　　 ⚪︎
０〜９</title>
<polygon fill="none" stroke="black" points="1007.5,-112 943.5,-112 943.5,-74 1007.5,-74 1007.5,-112"/>
<text text-anchor="middle" x="975.5" y="-96.8" font-family="Times,serif" font-size="14.00">　　 ⚪︎</text>
<text text-anchor="middle" x="975.5" y="-81.8" font-family="Times,serif" font-size="14.00">０〜９</text>
</g>
<!-- 　　*
 数値 &#45;&#45;　　 ⚪︎
０〜９ -->
<g id="edge41" class="edge">
<title>　　*
 数値 &#45;&#45;　　 ⚪︎
０〜９</title>
<path fill="none" stroke="black" d="M975.5,-147.83C975.5,-137 975.5,-123.29 975.5,-112.41"/>
</g>
</g>
</svg>
