<?xml version="1.0" encoding="UTF-8" standalone="no"?>
<!DOCTYPE svg PUBLIC "-//W3C//DTD SVG 1.1//EN"
 "http://www.w3.org/Graphics/SVG/1.1/DTD/svg11.dtd">
<!-- Generated by graphviz version 2.50.0 (20211204.2007)
 -->
<!-- Pages: 1 -->
<svg width="82pt" height="209pt"
 viewBox="0.00 0.00 82.00 209.00" xmlns="http://www.w3.org/2000/svg" xmlns:xlink="http://www.w3.org/1999/xlink">
<g id="graph0" class="graph" transform="scale(1 1) rotate(0) translate(4 205)">
<polygon fill="white" stroke="transparent" points="-4,4 -4,-205 78,-205 78,4 -4,4"/>
<!-- テキスト
ファイル -->
<g id="node1" class="node">
<title>テキスト
ファイル</title>
<polygon fill="none" stroke="black" points="73.5,-201 0.5,-201 0.5,-163 73.5,-163 73.5,-201"/>
<text text-anchor="middle" x="37" y="-185.8" font-family="Times,serif" font-size="14.00">テキスト</text>
<text text-anchor="middle" x="37" y="-170.8" font-family="Times,serif" font-size="14.00">ファイル</text>
</g>
<!-- 　　　*
同一行の
集まり -->
<g id="node2" class="node">
<title>　　　*
同一行の
集まり</title>
<polygon fill="none" stroke="black" points="74,-127 0,-127 0,-74 74,-74 74,-127"/>
<text text-anchor="middle" x="37" y="-111.8" font-family="Times,serif" font-size="14.00">　　　*</text>
<text text-anchor="middle" x="37" y="-96.8" font-family="Times,serif" font-size="14.00">同一行の</text>
<text text-anchor="middle" x="37" y="-81.8" font-family="Times,serif" font-size="14.00">集まり</text>
</g>
<!-- テキスト
ファイル&#45;&#45;　　　*
同一行の
集まり -->
<g id="edge1" class="edge">
<title>テキスト
ファイル&#45;&#45;　　　*
同一行の
集まり</title>
<path fill="none" stroke="black" d="M37,-162.96C37,-152.33 37,-138.72 37,-127"/>
</g>
<!-- 　　　*
同一行 -->
<g id="node3" class="node">
<title>　　　*
同一行</title>
<polygon fill="none" stroke="black" points="70,-38 4,-38 4,0 70,0 70,-38"/>
<text text-anchor="middle" x="37" y="-22.8" font-family="Times,serif" font-size="14.00">　　　*</text>
<text text-anchor="middle" x="37" y="-7.8" font-family="Times,serif" font-size="14.00">同一行</text>
</g>
<!-- 　　　*
同一行の
集まり&#45;&#45;　　　*
同一行 -->
<g id="edge2" class="edge">
<title>　　　*
同一行の
集まり&#45;&#45;　　　*
同一行</title>
<path fill="none" stroke="black" d="M37,-73.91C37,-62.29 37,-48.81 37,-38.24"/>
</g>
</g>
</svg>
