<?xml version="1.0" encoding="UTF-8" standalone="no"?>
<!DOCTYPE svg PUBLIC "-//W3C//DTD SVG 1.1//EN"
 "http://www.w3.org/Graphics/SVG/1.1/DTD/svg11.dtd">
<!-- Generated by graphviz version 2.50.0 (20211204.2007)
 -->
<!-- Pages: 1 -->
<svg width="202pt" height="192pt"
 viewBox="0.00 0.00 202.00 192.00" xmlns="http://www.w3.org/2000/svg" xmlns:xlink="http://www.w3.org/1999/xlink">
<g id="graph0" class="graph" transform="scale(1 1) rotate(0) translate(4 188)">
<polygon fill="white" stroke="transparent" points="-4,4 -4,-188 198,-188 198,4 -4,4"/>
<!-- テキスト -->
<g id="node1" class="node">
<title>テキスト</title>
<polygon fill="none" stroke="black" points="126.5,-184 53.5,-184 53.5,-148 126.5,-148 126.5,-184"/>
<text text-anchor="middle" x="90" y="-162.3" font-family="Times,serif" font-size="14.00">テキスト</text>
</g>
<!-- 　　*
文字 -->
<g id="node2" class="node">
<title>　　*
文字</title>
<polygon fill="none" stroke="black" points="117,-112 63,-112 63,-74 117,-74 117,-112"/>
<text text-anchor="middle" x="90" y="-96.8" font-family="Times,serif" font-size="14.00">　　*</text>
<text text-anchor="middle" x="90" y="-81.8" font-family="Times,serif" font-size="14.00">文字</text>
</g>
<!-- テキスト&#45;&#45;　　*
文字 -->
<g id="edge1" class="edge">
<title>テキスト&#45;&#45;　　*
文字</title>
<path fill="none" stroke="black" d="M90,-147.81C90,-136.98 90,-123.01 90,-112.02"/>
</g>
<!-- 　　⚪︎
空白文字 -->
<g id="node3" class="node">
<title>　　⚪︎
空白文字</title>
<polygon fill="none" stroke="black" points="74,-38 0,-38 0,0 74,0 74,-38"/>
<text text-anchor="middle" x="37" y="-22.8" font-family="Times,serif" font-size="14.00">　　⚪︎</text>
<text text-anchor="middle" x="37" y="-7.8" font-family="Times,serif" font-size="14.00">空白文字</text>
</g>
<!-- 　　*
文字&#45;&#45;　　⚪︎
空白文字 -->
<g id="edge2" class="edge">
<title>　　*
文字&#45;&#45;　　⚪︎
空白文字</title>
<path fill="none" stroke="black" d="M76.63,-73.83C68.65,-63 58.56,-49.29 50.55,-38.41"/>
</g>
<!-- 　　　　　⚪︎
空白以外文字 -->
<g id="node4" class="node">
<title>　　　　　⚪︎
空白以外文字</title>
<polygon fill="none" stroke="black" points="194,-38 92,-38 92,0 194,0 194,-38"/>
<text text-anchor="middle" x="143" y="-22.8" font-family="Times,serif" font-size="14.00">　　　　　⚪︎</text>
<text text-anchor="middle" x="143" y="-7.8" font-family="Times,serif" font-size="14.00">空白以外文字</text>
</g>
<!-- 　　*
文字&#45;&#45;　　　　　⚪︎
空白以外文字 -->
<g id="edge3" class="edge">
<title>　　*
文字&#45;&#45;　　　　　⚪︎
空白以外文字</title>
<path fill="none" stroke="black" d="M103.37,-73.83C111.35,-63 121.44,-49.29 129.45,-38.41"/>
</g>
</g>
</svg>
