<?xml version="1.0" encoding="UTF-8" standalone="no"?>
<!DOCTYPE svg PUBLIC "-//W3C//DTD SVG 1.1//EN"
 "http://www.w3.org/Graphics/SVG/1.1/DTD/svg11.dtd">
<!-- Generated by graphviz version 2.50.0 (20211204.2007)
 -->
<!-- Pages: 1 -->
<svg width="266pt" height="264pt"
 viewBox="0.00 0.00 266.00 264.00" xmlns="http://www.w3.org/2000/svg" xmlns:xlink="http://www.w3.org/1999/xlink">
<g id="graph0" class="graph" transform="scale(1 1) rotate(0) translate(4 260)">
<polygon fill="white" stroke="transparent" points="-4,4 -4,-260 262,-260 262,4 -4,4"/>
<!-- テキスト -->
<g id="node1" class="node">
<title>テキスト</title>
<polygon fill="none" stroke="black" points="152,-256 79,-256 79,-220 152,-220 152,-256"/>
<text text-anchor="middle" x="115.5" y="-234.3" font-family="Times,serif" font-size="14.00">テキスト</text>
</g>
<!-- 　　　　*
空白と単語 -->
<g id="node2" class="node">
<title>　　　　*
空白と単語</title>
<polygon fill="none" stroke="black" points="159.5,-184 71.5,-184 71.5,-146 159.5,-146 159.5,-184"/>
<text text-anchor="middle" x="115.5" y="-168.8" font-family="Times,serif" font-size="14.00">　　　　*</text>
<text text-anchor="middle" x="115.5" y="-153.8" font-family="Times,serif" font-size="14.00">空白と単語</text>
</g>
<!-- テキスト&#45;&#45;　　　　*
空白と単語 -->
<g id="edge1" class="edge">
<title>テキスト&#45;&#45;　　　　*
空白と単語</title>
<path fill="none" stroke="black" d="M115.5,-219.81C115.5,-208.98 115.5,-195.01 115.5,-184.02"/>
</g>
<!-- 空白 -->
<g id="node3" class="node">
<title>空白</title>
<polygon fill="none" stroke="black" points="90.5,-110 36.5,-110 36.5,-74 90.5,-74 90.5,-110"/>
<text text-anchor="middle" x="63.5" y="-88.3" font-family="Times,serif" font-size="14.00">空白</text>
</g>
<!-- 　　　　*
空白と単語&#45;&#45;空白 -->
<g id="edge2" class="edge">
<title>　　　　*
空白と単語&#45;&#45;空白</title>
<path fill="none" stroke="black" d="M102.11,-145.72C94.04,-134.7 83.84,-120.78 75.95,-110"/>
</g>
<!-- 単語 -->
<g id="node4" class="node">
<title>単語</title>
<polygon fill="none" stroke="black" points="195.5,-110 141.5,-110 141.5,-74 195.5,-74 195.5,-110"/>
<text text-anchor="middle" x="168.5" y="-88.3" font-family="Times,serif" font-size="14.00">単語</text>
</g>
<!-- 　　　　*
空白と単語&#45;&#45;単語 -->
<g id="edge3" class="edge">
<title>　　　　*
空白と単語&#45;&#45;単語</title>
<path fill="none" stroke="black" d="M129.15,-145.72C137.37,-134.7 147.77,-120.78 155.81,-110"/>
</g>
<!-- 　　　　　*
空白文字 -->
<g id="node5" class="node">
<title>　　　　　*
空白文字</title>
<polygon fill="none" stroke="black" points="95,-38 0,-38 0,0 95,0 95,-38"/>
<text text-anchor="middle" x="47.5" y="-22.8" font-family="Times,serif" font-size="14.00">　　　　　*</text>
<text text-anchor="middle" x="47.5" y="-7.8" font-family="Times,serif" font-size="14.00">空白文字</text>
</g>
<!-- 空白&#45;&#45;　　　　　*
空白文字 -->
<g id="edge4" class="edge">
<title>空白&#45;&#45;　　　　　*
空白文字</title>
<path fill="none" stroke="black" d="M59.63,-73.81C57.19,-62.98 54.04,-49.01 51.56,-38.02"/>
</g>
<!-- 　　　　　　　　*
空白文字以外の文字 -->
<g id="node6" class="node">
<title>　　　　　　　　*
空白文字以外の文字</title>
<polygon fill="none" stroke="black" points="258,-38 113,-38 113,0 258,0 258,-38"/>
<text text-anchor="middle" x="185.5" y="-22.8" font-family="Times,serif" font-size="14.00">　　　　　　　　*</text>
<text text-anchor="middle" x="185.5" y="-7.8" font-family="Times,serif" font-size="14.00">空白文字以外の文字</text>
</g>
<!-- 単語&#45;&#45;　　　　　　　　*
空白文字以外の文字 -->
<g id="edge5" class="edge">
<title>単語&#45;&#45;　　　　　　　　*
空白文字以外の文字</title>
<path fill="none" stroke="black" d="M172.62,-73.81C175.21,-62.98 178.55,-49.01 181.19,-38.02"/>
</g>
</g>
</svg>
